<svg width="12" height="13" viewBox="0 0 12 13" fill="none" xmlns="http://www.w3.org/2000/svg">
<g id="calendar-alt" clip-path="url(#clip0_633_8165)">
<path id="Vector" d="M0.75 11.375C0.75 11.9961 1.25391 12.5 1.875 12.5H10.125C10.7461 12.5 11.25 11.9961 11.25 11.375V5H0.75V11.375ZM8.25 6.78125C8.25 6.62656 8.37656 6.5 8.53125 6.5H9.46875C9.62344 6.5 9.75 6.62656 9.75 6.78125V7.71875C9.75 7.87344 9.62344 8 9.46875 8H8.53125C8.37656 8 8.25 7.87344 8.25 7.71875V6.78125ZM8.25 9.78125C8.25 9.62656 8.37656 9.5 8.53125 9.5H9.46875C9.62344 9.5 9.75 9.62656 9.75 9.78125V10.7188C9.75 10.8734 9.62344 11 9.46875 11H8.53125C8.37656 11 8.25 10.8734 8.25 10.7188V9.78125ZM5.25 6.78125C5.25 6.62656 5.37656 6.5 5.53125 6.5H6.46875C6.62344 6.5 6.75 6.62656 6.75 6.78125V7.71875C6.75 7.87344 6.62344 8 6.46875 8H5.53125C5.37656 8 5.25 7.87344 5.25 7.71875V6.78125ZM5.25 9.78125C5.25 9.62656 5.37656 9.5 5.53125 9.5H6.46875C6.62344 9.5 6.75 9.62656 6.75 9.78125V10.7188C6.75 10.8734 6.62344 11 6.46875 11H5.53125C5.37656 11 5.25 10.8734 5.25 10.7188V9.78125ZM2.25 6.78125C2.25 6.62656 2.37656 6.5 2.53125 6.5H3.46875C3.62344 6.5 3.75 6.62656 3.75 6.78125V7.71875C3.75 7.87344 3.62344 8 3.46875 8H2.53125C2.37656 8 2.25 7.87344 2.25 7.71875V6.78125ZM2.25 9.78125C2.25 9.62656 2.37656 9.5 2.53125 9.5H3.46875C3.62344 9.5 3.75 9.62656 3.75 9.78125V10.7188C3.75 10.8734 3.62344 11 3.46875 11H2.53125C2.37656 11 2.25 10.8734 2.25 10.7188V9.78125ZM10.125 2H9V0.875C9 0.66875 8.83125 0.5 8.625 0.5H7.875C7.66875 0.5 7.5 0.66875 7.5 0.875V2H4.5V0.875C4.5 0.66875 4.33125 0.5 4.125 0.5H3.375C3.16875 0.5 3 0.66875 3 0.875V2H1.875C1.25391 2 0.75 2.50391 0.75 3.125V4.25H11.25V3.125C11.25 2.50391 10.7461 2 10.125 2Z" fill="#677788"/>
</g>
<defs>
<clipPath id="clip0_633_8165">
<rect width="12" height="12" fill="white" transform="translate(0 0.5)"/>
</clipPath>
</defs>
</svg>
