<svg
                xmlns="http://www.w3.org/2000/svg"
                width="16"
                height="16"
                viewBox="0 0 16 16"
                fill="none"
              >
                <g clipPath="url(#clip0_278_10468)">
                  <path
                    d="M6.78956 -2.90625H9.25702C9.66724 -2.90625 9.99726 -2.51963 9.99726 -2.03906V4.03125H12.7022C13.2512 4.03125 13.5257 4.80811 13.1371 5.26338L8.44584 10.7628C8.21452 11.0338 7.83514 11.0338 7.60382 10.7628L2.90639 5.26338C2.51776 4.80811 2.79227 4.03125 3.34128 4.03125H6.04932V-2.03906C6.04932 -2.51963 6.37934 -2.90625 6.78956 -2.90625ZM15.9192 10.6797V14.7266C15.9192 15.2071 15.5891 15.5938 15.1789 15.5938H0.867649C0.457434 15.5938 0.127411 15.2071 0.127411 14.7266V10.6797C0.127411 10.1991 0.457434 9.8125 0.867649 9.8125H5.39236L6.90368 11.583C7.52363 12.3093 8.52295 12.3093 9.1429 11.583L10.6542 9.8125H15.1789C15.5891 9.8125 15.9192 10.1991 15.9192 10.6797ZM12.0946 13.8594C12.0946 13.4619 11.817 13.1367 11.4777 13.1367C11.1385 13.1367 10.8609 13.4619 10.8609 13.8594C10.8609 14.2568 11.1385 14.582 11.4777 14.582C11.817 14.582 12.0946 14.2568 12.0946 13.8594ZM14.0686 13.8594C14.0686 13.4619 13.791 13.1367 13.4517 13.1367C13.1124 13.1367 12.8348 13.4619 12.8348 13.8594C12.8348 14.2568 13.1124 14.582 13.4517 14.582C13.791 14.582 14.0686 14.2568 14.0686 13.8594Z"
                    fill="#5A8DEE"
                  />
                </g>
                <defs>
                  <clipPath id="clip0_278_10468">
                    <rect
                      width="15.7918"
                      height="15.0312"
                      fill="white"
                      transform="translate(0.127411 0.5625)"
                    />
                  </clipPath>
                </defs>
              </svg>