<svg width="192" height="48" viewBox="0 0 192 48" fill="none" xmlns="http://www.w3.org/2000/svg">
<g clip-path="url(#clip0_278_10505)">
<path d="M13.8413 48V47.6127C13.8413 30.9592 27.8811 17.4412 45.3175 17.1711C42.6032 17.2683 30.3377 18.3284 27.5723 29.4702C27.4789 29.8457 27.4304 30.2307 27.4304 30.6169V48.0012H13.8426L13.8413 48Z" fill="#34BEBD"/>
<path d="M29.5795 30.8751C32.0361 19.1493 44.7037 18.0524 47.4679 17.9529C47.5127 17.9529 47.5525 17.9482 47.5924 17.9482C47.8563 17.9434 47.9995 17.9434 47.9995 17.9434V30.8751H29.5795Z" fill="#2093C0"/>
<path d="M33.3446 0V0.387345C33.372 17.0408 19.3534 30.5801 1.91821 30.8751C4.60515 30.7744 16.6528 29.7166 19.5588 18.8804C19.7182 18.287 19.7842 17.6757 19.7842 17.0633L19.7568 0.0201372L33.3446 0Z" fill="#34BEBD"/>
<path d="M18.4196 16.3029C15.9829 28.031 3.31647 29.1468 0.552338 29.2511C0.507514 29.2511 0.467671 29.2558 0.427828 29.2558C0.163865 29.2606 0.0206785 29.2617 0.0206785 29.2617L-0.000488281 16.3301L18.4196 16.3029Z" fill="#2093C0"/>
</g>
<path d="M72.1555 13.456H79.5195C80.8075 13.456 81.9835 13.6613 83.0475 14.072C84.1115 14.4827 85.0168 15.0987 85.7635 15.92C86.5102 16.7227 87.0888 17.74 87.4995 18.972C87.9102 20.1853 88.1155 21.604 88.1155 23.228C88.1155 24.852 87.9102 26.28 87.4995 27.512C87.0888 28.7253 86.5102 29.7427 85.7635 30.564C85.0168 31.3667 84.1115 31.9733 83.0475 32.384C81.9835 32.7947 80.8075 33 79.5195 33H72.1555V13.456ZM79.5195 29.22C80.7888 29.22 81.7875 28.8653 82.5155 28.156C83.2435 27.4467 83.6075 26.308 83.6075 24.74V21.716C83.6075 20.148 83.2435 19.0093 82.5155 18.3C81.7875 17.5907 80.7888 17.236 79.5195 17.236H76.4115V29.22H79.5195ZM91.4171 26.476V22.444H99.7331V26.476H91.4171ZM111.688 33.336C110.363 33.336 109.168 33.1307 108.104 32.72C107.04 32.2907 106.135 31.6653 105.388 30.844C104.642 30.004 104.063 28.968 103.652 27.736C103.242 26.4853 103.036 25.0293 103.036 23.368C103.036 21.7253 103.242 20.2693 103.652 19C104.063 17.712 104.642 16.6387 105.388 15.78C106.135 14.9027 107.04 14.24 108.104 13.792C109.168 13.344 110.363 13.12 111.688 13.12C113.499 13.12 114.992 13.4933 116.168 14.24C117.344 14.968 118.287 16.1253 118.996 17.712L115.328 19.616C115.067 18.7947 114.656 18.1413 114.096 17.656C113.555 17.152 112.752 16.9 111.688 16.9C110.438 16.9 109.43 17.3107 108.664 18.132C107.918 18.9347 107.544 20.1107 107.544 21.66V24.796C107.544 26.3453 107.918 27.5307 108.664 28.352C109.43 29.1547 110.438 29.556 111.688 29.556C112.734 29.556 113.564 29.276 114.18 28.716C114.815 28.1373 115.282 27.4467 115.58 26.644L119.052 28.66C118.324 30.1533 117.363 31.3107 116.168 32.132C114.992 32.9347 113.499 33.336 111.688 33.336ZM125.923 33C124.504 33 123.459 32.6547 122.787 31.964C122.133 31.2733 121.807 30.2747 121.807 28.968V12.28H125.951V29.78H127.799V33H125.923ZM132.355 16.732C131.515 16.732 130.899 16.5453 130.507 16.172C130.134 15.78 129.947 15.2853 129.947 14.688V14.072C129.947 13.4747 130.134 12.9893 130.507 12.616C130.899 12.224 131.515 12.028 132.355 12.028C133.195 12.028 133.802 12.224 134.175 12.616C134.567 12.9893 134.763 13.4747 134.763 14.072V14.688C134.763 15.2853 134.567 15.78 134.175 16.172C133.802 16.5453 133.195 16.732 132.355 16.732ZM130.283 18.3H134.427V33H130.283V18.3ZM138.295 33V18.3H142.439V20.792H142.607C142.868 20.0267 143.325 19.364 143.979 18.804C144.632 18.244 145.537 17.964 146.695 17.964C148.207 17.964 149.345 18.468 150.111 19.476C150.895 20.484 151.287 21.9213 151.287 23.788V33H147.143V24.124C147.143 23.172 146.993 22.472 146.695 22.024C146.396 21.5573 145.864 21.324 145.099 21.324C144.763 21.324 144.436 21.3707 144.119 21.464C143.801 21.5387 143.512 21.6693 143.251 21.856C143.008 22.0427 142.812 22.276 142.663 22.556C142.513 22.8173 142.439 23.1253 142.439 23.48V33H138.295ZM157.046 16.732C156.206 16.732 155.59 16.5453 155.198 16.172C154.825 15.78 154.638 15.2853 154.638 14.688V14.072C154.638 13.4747 154.825 12.9893 155.198 12.616C155.59 12.224 156.206 12.028 157.046 12.028C157.886 12.028 158.493 12.224 158.866 12.616C159.258 12.9893 159.454 13.4747 159.454 14.072V14.688C159.454 15.2853 159.258 15.78 158.866 16.172C158.493 16.5453 157.886 16.732 157.046 16.732ZM154.974 18.3H159.118V33H154.974V18.3ZM168.922 33.336C167.821 33.336 166.841 33.1587 165.982 32.804C165.124 32.4307 164.405 31.9173 163.826 31.264C163.248 30.592 162.809 29.78 162.51 28.828C162.212 27.876 162.062 26.812 162.062 25.636C162.062 24.46 162.212 23.4053 162.51 22.472C162.809 21.52 163.248 20.708 163.826 20.036C164.405 19.364 165.124 18.8507 165.982 18.496C166.841 18.1413 167.821 17.964 168.922 17.964C170.416 17.964 171.657 18.3 172.646 18.972C173.654 19.644 174.373 20.5867 174.802 21.8L171.442 23.256C171.312 22.696 171.041 22.22 170.63 21.828C170.22 21.436 169.65 21.24 168.922 21.24C168.082 21.24 167.448 21.52 167.018 22.08C166.589 22.6213 166.374 23.3587 166.374 24.292V27.036C166.374 27.9693 166.589 28.7067 167.018 29.248C167.448 29.7893 168.082 30.06 168.922 30.06C169.669 30.06 170.257 29.864 170.686 29.472C171.134 29.0613 171.461 28.5293 171.666 27.876L174.886 29.276C174.401 30.676 173.645 31.7027 172.618 32.356C171.61 33.0093 170.378 33.336 168.922 33.336ZM182.435 33.336C181.016 33.336 179.822 33.112 178.851 32.664C177.88 32.1973 177.012 31.544 176.247 30.704L178.683 28.24C179.206 28.8187 179.784 29.276 180.419 29.612C181.054 29.948 181.772 30.116 182.575 30.116C183.396 30.116 183.966 29.9947 184.283 29.752C184.6 29.4907 184.759 29.1453 184.759 28.716C184.759 28.0253 184.264 27.6147 183.275 27.484L181.679 27.288C178.375 26.8773 176.723 25.3653 176.723 22.752C176.723 22.0427 176.854 21.3987 177.115 20.82C177.395 20.2227 177.778 19.7187 178.263 19.308C178.767 18.8787 179.364 18.552 180.055 18.328C180.764 18.0853 181.558 17.964 182.435 17.964C183.2 17.964 183.872 18.02 184.451 18.132C185.048 18.2253 185.571 18.3747 186.019 18.58C186.486 18.7667 186.906 19.0093 187.279 19.308C187.671 19.588 188.054 19.9053 188.427 20.26L186.047 22.696C185.58 22.2293 185.048 21.8653 184.451 21.604C183.872 21.324 183.275 21.184 182.659 21.184C181.95 21.184 181.446 21.296 181.147 21.52C180.848 21.744 180.699 22.0427 180.699 22.416C180.699 22.808 180.802 23.116 181.007 23.34C181.231 23.5453 181.642 23.6947 182.239 23.788L183.891 24.012C187.12 24.4413 188.735 25.916 188.735 28.436C188.735 29.1453 188.586 29.7987 188.287 30.396C187.988 30.9933 187.559 31.516 186.999 31.964C186.458 32.3933 185.795 32.7293 185.011 32.972C184.246 33.2147 183.387 33.336 182.435 33.336Z" fill="#1F92BF"/>
<defs>
<clipPath id="clip0_278_10505">
<rect width="48" height="48" fill="white" transform="translate(-0.000488281)"/>
</clipPath>
</defs>
</svg>
